<svg xmlns="http://www.w3.org/2000/svg" version="1.1" xmlns:xlink="http://www.w3.org/1999/xlink" xmlns:svgjs="http://svgjs.dev/svgjs" width="2000" height="1500" viewBox="0 0 2000 1500"><rect width="2000" height="1500" fill="#ffffff"></rect><g transform="matrix(0.75,0,0,0.75,248.56526717316035,15.638709677419342)"><svg viewBox="0 0 254 248" data-background-color="#ffffff" preserveAspectRatio="xMidYMid meet" height="1952" width="2000" xmlns="http://www.w3.org/2000/svg" xmlns:xlink="http://www.w3.org/1999/xlink"><g id="tight-bounds" transform="matrix(1,0,0,1,0.2429480920115168,0.4000000000000057)"><svg viewBox="0 0 253.51410381597697 247.2" height="247.2" width="253.51410381597697"><g><svg viewBox="0 0 397.4975999999999 387.59739691377024" height="247.2" width="253.51410381597697"><g><rect width="397.4975999999999" height="8.279565511181485" x="0" y="216.59852119529648" fill="#233565" opacity="1" stroke-width="0" stroke="transparent" fill-opacity="1" class="rect-yte-0" data-fill-palette-color="secondary" rx="1%" id="yte-0" data-palette-color="#233565"></rect></g><g transform="matrix(1,0,0,1,0.9887999999999693,246.55234197135098)"><svg viewBox="0 0 395.52 141.04505494241928" height="141.04505494241928" width="395.52"><g id="textblocktransform"><svg viewBox="0 0 395.52 141.04505494241928" height="141.04505494241928" width="395.52" id="textblock"><g><svg viewBox="0 0 395.52 91.81049858889932" height="91.81049858889932" width="395.52"><g transform="matrix(1,0,0,1,0,0)"><svg width="395.52" viewBox="0.65 -38.7 212.57999999999998 49.35" height="91.81049858889932" data-palette-color="#233565"><path d="M0.65-4.55L4.55-9.95Q8.8-5.7 13.05-5.7L13.05-5.7Q15.25-5.7 16.57-6.73 17.9-7.75 17.9-9.38 17.9-11 16.3-12.13 14.7-13.25 12.43-14.1 10.15-14.95 7.9-16.03 5.65-17.1 4.05-19.1 2.45-21.1 2.45-23.95L2.45-23.95Q2.45-28.45 6.2-31.73 9.95-35 15.1-35L15.1-35Q17.45-35 19.65-34.5 21.85-34 23.9-33.05L23.9-33.05 20.5-25.75Q19.1-26.85 16.68-27.78 14.25-28.7 12.43-28.7 10.6-28.7 9.47-27.83 8.35-26.95 8.35-25.5 8.35-24.05 9.95-22.93 11.55-21.8 13.83-20.95 16.1-20.1 18.38-19.07 20.65-18.05 22.25-16.05 23.85-14.05 23.85-11.2L23.85-11.2Q23.85-6.5 20.1-2.98 16.35 0.55 11.35 0.55L11.35 0.55Q7.6 0.55 4.7-1.25L4.7-1.25Q2.15-2.8 1.1-4L1.1-4 0.65-4.55ZM41.4-25.25L41.4-25.25Q44.6-25.25 46.77-22.45 48.95-19.65 48.95-14.9L48.95-14.9Q48.95-8.25 45.52-4.13 42.1 0 37 0L37 0Q35.95 0 34.65-0.15L34.65-0.15 34.9 9.4 28.05 10.65 28.7-12.15 28.75-12.15Q28.55-18.85 27.65-24.15L27.65-24.15 33.7-25.45Q34-22.8 34.2-20.2L34.2-20.2Q34.3-20.45 35.22-21.58 36.15-22.7 37.95-23.98 39.75-25.25 41.4-25.25ZM39.45-18.75L39.45-18.75Q36.8-18.75 34.3-17.3L34.3-17.3 34.3-13 34.5-5.85Q37.2-5.4 38.6-5.4L38.6-5.4Q43.4-5.4 43.4-12.08 43.4-18.75 39.45-18.75ZM62.1-5.1L62.1-5.1Q63.55-5.1 65.15-5.85 66.75-6.6 67.65-7.35L67.65-7.35 68.55-8.1 70.85-5.3Q70.35-4.45 69.3-3.35 68.25-2.25 67.17-1.48 66.1-0.7 64.32-0.08 62.55 0.55 60.65 0.55L60.65 0.55Q56.6 0.55 54.05-2.53 51.5-5.6 51.5-10.45L51.5-10.45Q51.5-16.55 55.05-21.15 58.6-25.75 63.35-25.75L63.35-25.75Q67-25.75 69.02-23.7 71.05-21.65 71.05-17.95L71.05-17.95Q71.05-15.75 70.3-12.95L70.3-12.95 69.3-11.9 56.8-10.75Q57.65-5.1 62.1-5.1ZM62.1-20.6L62.1-20.6Q59.9-20.6 58.4-18.82 56.9-17.05 56.65-14.3L56.65-14.3 65.15-15.35Q65.3-16.5 65.3-17.25L65.3-17.25Q65.3-20.6 62.1-20.6ZM89.89-12.65Q89.89-16.1 89.29-17.25 88.69-18.4 86.49-18.4 84.29-18.4 81.49-16.65L81.49-16.65 81.49-13 82.04-1.25 75.34 0 75.94-12.15Q75.74-18.85 74.84-24.15L74.84-24.15 80.89-25.45Q81.24-22.55 81.39-19.8L81.39-19.8Q82.14-20.8 83.09-21.78 84.04-22.75 86.09-23.98 88.14-25.2 90.42-25.2 92.69-25.2 94.24-23.43 95.79-21.65 95.79-18.6L95.79-18.6 95.49-13 96.04-1 89.29 0.25 89.89-12.65ZM114.74-4.9L114.74-4.9Q110.84 0 107.99 0L107.99 0Q104.44 0 102.17-2.9 99.89-5.8 99.89-10.35L99.89-10.35Q99.89-16.6 103.37-20.9 106.84-25.2 111.89-25.2L111.89-25.2 114.69-24.8 114.69-25.75 114.09-37.45 120.94-38.7 120.29-13 120.29-8.6Q120.29-5.6 121.79-1.7L121.79-1.7 116.39 0.55Q114.94-2.45 114.74-4.9ZM105.49-12.95Q105.49-9.75 106.67-7.95 107.84-6.15 110.07-6.15 112.29-6.15 114.69-7.95L114.69-7.95 114.69-18.75Q111.69-19.35 110.24-19.35L110.24-19.35Q107.99-19.35 106.74-17.75 105.49-16.15 105.49-12.95ZM126.64-24.2L133.34-25.45 132.74-13 133.29-1.25 126.59 0 127.19-12.15 126.64-24.2ZM126.29-32.77Q126.29-34.45 127.59-35.77 128.89-37.1 130.59-37.1 132.29-37.1 133.19-36.18 134.09-35.25 134.09-33.4 134.09-31.55 132.81-30.23 131.54-28.9 129.86-28.9 128.19-28.9 127.24-30 126.29-31.1 126.29-32.77ZM146.38-4.65L146.38-4.65Q148.99-4.65 148.99-6.95L148.99-6.95Q148.99-7.75 147.86-8.45 146.74-9.15 145.11-9.85 143.49-10.55 141.86-11.43 140.24-12.3 139.11-13.85 137.99-15.4 137.99-17.4L137.99-17.4Q137.99-20.75 140.94-23.25 143.88-25.75 147.74-25.75L147.74-25.75Q149.53-25.75 151.26-25.33 152.99-24.9 154.59-24L154.59-24 151.24-17.9Q150.88-18.2 150.34-18.65 149.78-19.1 148.26-19.83 146.74-20.55 145.56-20.55 144.38-20.55 143.76-20.03 143.13-19.5 143.13-18.57 143.13-17.65 144.86-16.73 146.59-15.8 148.63-15.03 150.69-14.25 152.41-12.48 154.13-10.7 154.13-8.25L154.13-8.25Q154.13-4.75 151.26-2.1 148.38 0.55 144.63 0.55L144.63 0.55Q142.24 0.55 140.16-0.5 138.09-1.55 137.19-2.6L137.19-2.6 136.28-3.65 140.24-8.25Q140.53-7.85 141.09-7.25 141.63-6.65 143.26-5.65 144.88-4.65 146.38-4.65ZM157.58-24.2L160.48-24.2 160.48-29.65 167.23-30.95 166.58-24.2 172.63-24.2 172.08-20.1 166.38-20.1 166.13-9.65Q166.13-7.3 166.58-6.53 167.03-5.75 168.23-5.75 169.43-5.75 171.43-6.3L171.43-6.3 171.73-2.75Q168.43 0 165.93 0 163.43 0 161.83-1.83 160.23-3.65 160.23-6.6L160.23-6.6 160.53-12.2 160.48-20.1 157.03-20.1 157.58-24.2ZM185.28-5.1L185.28-5.1Q186.73-5.1 188.33-5.85 189.93-6.6 190.83-7.35L190.83-7.35 191.73-8.1 194.03-5.3Q193.53-4.45 192.48-3.35 191.43-2.25 190.35-1.48 189.28-0.7 187.5-0.08 185.73 0.55 183.83 0.55L183.83 0.55Q179.78 0.55 177.23-2.53 174.68-5.6 174.68-10.45L174.68-10.45Q174.68-16.55 178.23-21.15 181.78-25.75 186.53-25.75L186.53-25.75Q190.18-25.75 192.2-23.7 194.23-21.65 194.23-17.95L194.23-17.95Q194.23-15.75 193.48-12.95L193.48-12.95 192.48-11.9 179.98-10.75Q180.83-5.1 185.28-5.1ZM185.28-20.6L185.28-20.6Q183.08-20.6 181.58-18.82 180.08-17.05 179.83-14.3L179.83-14.3 188.33-15.35Q188.48-16.5 188.48-17.25L188.48-17.25Q188.48-20.6 185.28-20.6ZM198.03-24.15L198.03-24.15 204.08-25.45Q204.53-21.6 204.68-18.15L204.68-18.15Q209.23-25.2 213.23-25.2L213.23-25.2 212.68-17.4Q209.78-17.4 208.1-16.88 206.43-16.35 204.68-14.8L204.68-14.8 204.68-13 205.23-1.25 198.53 0 199.13-12.15Q198.93-18.85 198.03-24.15Z" opacity="1" transform="matrix(1,0,0,1,0,0)" fill="#233565" class="wordmark-text-0" data-fill-palette-color="primary" id="text-0"></path></svg></g></svg></g><g transform="matrix(1,0,0,1,75.54432,113.48475385377232)"><svg viewBox="0 0 244.43135999999998 27.560301088646966" height="27.560301088646966" width="244.43135999999998"><g transform="matrix(1,0,0,1,0,0)"><svg width="244.43135999999998" viewBox="1.85 -35.5 321.46 36.25" height="27.560301088646966" data-palette-color="#233565"><path d="M4.7-8.9Q4.85-7.2 5.98-5.65 7.1-4.1 9.08-3.13 11.05-2.15 13.6-2.15L13.6-2.15Q17.45-2.15 20.03-3.88 22.6-5.6 22.6-9.35L22.6-9.35Q22.6-11.55 21.35-13.03 20.1-14.5 18.25-15.38 16.4-16.25 13.2-17.4L13.2-17.4Q9.75-18.6 7.68-19.63 5.6-20.65 4.17-22.4 2.75-24.15 2.75-26.9L2.75-26.9Q2.75-29.1 4-31.08 5.25-33.05 7.78-34.27 10.3-35.5 14-35.5L14-35.5Q16.45-35.5 18.05-35.15 19.65-34.8 21.3-34L21.3-34 20.45-31.35Q17.6-32.8 14.1-32.8L14.1-32.8Q10.25-32.8 7.95-31.2 5.65-29.6 5.65-26.75L5.65-26.75Q5.65-24.95 6.8-23.73 7.95-22.5 9.63-21.75 11.3-21 14.3-19.95L14.3-19.95Q17.95-18.7 20.2-17.63 22.45-16.55 24.03-14.58 25.6-12.6 25.6-9.6L25.6-9.6Q25.6-5 22.68-2.23 19.75 0.55 13.65 0.55L13.65 0.55Q9.95 0.55 7.33-0.83 4.7-2.2 3.33-4.38 1.95-6.55 1.85-8.9L1.85-8.9 4.7-8.9ZM49.15 0Q43.75 0.55 41.35 0.55L41.35 0.55Q36.1 0.55 33-1.4 29.9-3.35 29.9-8.45L29.9-8.45 29.9-12.6Q29.9-17.55 33.35-19.25L33.35-19.25Q35-20.1 37.55-20.1L37.55-20.1Q39.9-20.1 42.3-19.33 44.7-18.55 46.35-17.3L46.35-17.3Q46.35-20.05 44.75-21.68 43.15-23.3 38.6-23.3L38.6-23.3 38.75-25.45Q43.55-25.45 45.82-23.93 48.1-22.4 48.62-20.3 49.15-18.2 49.15-14.9L49.15-14.9 49.15 0ZM46.35-15.15Q44.3-16.1 41.97-16.8 39.65-17.5 37.7-17.5L37.7-17.5Q32.65-17.5 32.65-12.45L32.65-12.45 32.65-8.1Q32.65-4.85 34.9-3.38 37.15-1.9 41.3-1.9L41.3-1.9Q43.45-1.9 46.35-2.3L46.35-2.3 46.35-15.15ZM57.9 0L50.25-25.05 53.2-25.05 59.85-2.9 66.55-25.05 69.5-25.05 61.75 0 57.9 0ZM87.34-1.75Q85.54-0.6 83.24 0 80.94 0.6 78.64 0.6L78.64 0.6Q74.94 0.6 72.77-1.23 70.59-3.05 70.59-6.7L70.59-6.7 70.59-16.95Q70.59-21 73.12-23.25 75.64-25.5 79.79-25.5L79.79-25.5Q83.94-25.5 86.27-23.28 88.59-21.05 88.59-17.1L88.59-17.1 88.59-10.6 73.39-9.75 73.39-6.7Q73.39-4.3 74.94-3.1 76.49-1.9 78.99-1.9L78.99-1.9Q82.49-1.9 86.24-3.9L86.24-3.9 87.34-1.75ZM85.79-17.45Q85.79-20.55 83.84-21.83 81.89-23.1 79.74-23.1L79.74-23.1Q76.99-23.1 75.19-21.6 73.39-20.1 73.39-16.9L73.39-16.9 73.39-12.5 85.79-13.1 85.79-17.45ZM108.34 0L108.34-35 111.14-35 111.14-2.5 126.39-2.5 126.39 0 108.34 0ZM132.04-32.15Q131.39-32.15 130.86-32.68 130.34-33.2 130.34-33.85L130.34-33.85Q130.34-34.5 130.84-35 131.34-35.5 132.04-35.5L132.04-35.5Q132.74-35.5 133.21-35.02 133.69-34.55 133.69-33.85L133.69-33.85Q133.69-33.15 133.19-32.65 132.69-32.15 132.04-32.15L132.04-32.15ZM130.59 0L130.59-25.05 133.39-25.05 133.39 0 130.59 0ZM156.03 0L146.43-15.85 143.83-13.6 143.83 0 141.03 0 141.03-35 143.83-35 143.83-16.75 153.83-26 155.83-24.05 148.43-17.6Q151.83-11.95 159.38 0L159.38 0 156.03 0ZM176.68-1.75Q174.88-0.6 172.58 0 170.28 0.6 167.98 0.6L167.98 0.6Q164.28 0.6 162.11-1.23 159.93-3.05 159.93-6.7L159.93-6.7 159.93-16.95Q159.93-21 162.46-23.25 164.98-25.5 169.13-25.5L169.13-25.5Q173.28-25.5 175.61-23.28 177.93-21.05 177.93-17.1L177.93-17.1 177.93-10.6 162.73-9.75 162.73-6.7Q162.73-4.3 164.28-3.1 165.83-1.9 168.33-1.9L168.33-1.9Q171.83-1.9 175.58-3.9L175.58-3.9 176.68-1.75ZM175.13-17.45Q175.13-20.55 173.18-21.83 171.23-23.1 169.08-23.1L169.08-23.1Q166.33-23.1 164.53-21.6 162.73-20.1 162.73-16.9L162.73-16.9 162.73-12.5 175.13-13.1 175.13-17.45ZM214.88 0Q209.48 0.55 207.08 0.55L207.08 0.55Q201.83 0.55 198.73-1.4 195.63-3.35 195.63-8.45L195.63-8.45 195.63-12.6Q195.63-17.55 199.08-19.25L199.08-19.25Q200.73-20.1 203.28-20.1L203.28-20.1Q205.63-20.1 208.03-19.33 210.43-18.55 212.08-17.3L212.08-17.3Q212.08-20.05 210.48-21.68 208.88-23.3 204.33-23.3L204.33-23.3 204.48-25.45Q209.28-25.45 211.55-23.93 213.83-22.4 214.35-20.3 214.88-18.2 214.88-14.9L214.88-14.9 214.88 0ZM212.08-15.15Q210.03-16.1 207.7-16.8 205.38-17.5 203.43-17.5L203.43-17.5Q198.38-17.5 198.38-12.45L198.38-12.45 198.38-8.1Q198.38-4.85 200.63-3.38 202.88-1.9 207.03-1.9L207.03-1.9Q209.18-1.9 212.08-2.3L212.08-2.3 212.08-15.15ZM234.47 0L234.47-35 245.52-35Q249.62-35 251.97-32.9 254.32-30.8 254.32-26.5L254.32-26.5Q254.32-24.55 253.67-22.8 253.02-21.05 251.02-19.7L251.02-19.7 250.97-19.6 250.97-19.55Q253.17-18.55 254.65-16.3 256.12-14.05 256.12-10.45L256.12-10.45Q256.12-6.15 253.8-3.08 251.47 0 245.97 0L245.97 0 234.47 0ZM245.42-20.65Q248.22-20.65 249.82-22.15 251.42-23.65 251.42-26.5L251.42-26.5Q251.42-32.35 245.12-32.35L245.12-32.35 237.27-32.35 237.27-20.65 245.42-20.65ZM245.87-2.65Q249.22-2.65 251.17-4.45 253.12-6.25 253.12-10.65L253.12-10.65Q253.12-14.15 251.22-16.03 249.32-17.9 246.72-17.9L246.72-17.9 237.27-17.9 237.27-2.65 245.87-2.65ZM280.32-9.2Q280.32-5 278.02-2.25 275.72 0.5 271.07 0.5L271.07 0.5Q266.42 0.5 264.04-2.27 261.67-5.05 261.67-9.2L261.67-9.2 261.67-15.8Q261.67-20.55 264.09-23.08 266.52-25.6 271.07-25.6L271.07-25.6Q275.42-25.6 277.87-22.98 280.32-20.35 280.32-15.8L280.32-15.8 280.32-9.2ZM277.52-15.8Q277.52-19.55 275.79-21.3 274.07-23.05 271.07-23.05L271.07-23.05Q267.97-23.05 266.22-21.3 264.47-19.55 264.47-15.8L264.47-15.8 264.47-8.7Q264.47-5.7 266.24-3.85 268.02-2 271.07-2L271.07-2Q274.17-2 275.84-3.83 277.52-5.65 277.52-8.7L277.52-8.7 277.52-15.8ZM286.42-6.35Q286.72-4.1 288.67-2.98 290.62-1.85 293.02-1.85L293.02-1.85Q295.27-1.85 297.12-2.88 298.97-3.9 298.97-6.2L298.97-6.2Q298.97-7.7 298.09-8.68 297.22-9.65 295.92-10.25 294.62-10.85 292.42-11.55L292.42-11.55Q289.97-12.35 288.42-13.05 286.87-13.75 285.72-15.03 284.57-16.3 284.37-18.25L284.37-18.25 284.32-18.85Q284.32-20.5 285.24-22.08 286.17-23.65 288.09-24.65 290.02-25.65 292.92-25.65L292.92-25.65Q294.52-25.65 295.74-25.33 296.97-25 297.67-24.65 298.37-24.3 298.52-24.2L298.52-24.2 297.57-21.9Q297.42-22 296.84-22.3 296.27-22.6 295.22-22.9 294.17-23.2 292.92-23.2L292.92-23.2Q290.52-23.2 288.82-22.08 287.12-20.95 287.12-18.95L287.12-18.95Q287.12-17.05 288.67-16.05 290.22-15.05 293.42-14.05L293.42-14.05Q296.12-13.15 297.77-12.35 299.42-11.55 300.59-10.08 301.77-8.6 301.77-6.25L301.77-6.25Q301.77-3.25 299.54-1.25 297.32 0.75 293.02 0.75L293.02 0.75Q290.17 0.75 288.09-0.23 286.02-1.2 284.94-2.8 283.87-4.4 283.77-6.35L283.77-6.35 286.42-6.35ZM307.96-6.35Q308.26-4.1 310.21-2.98 312.16-1.85 314.56-1.85L314.56-1.85Q316.81-1.85 318.66-2.88 320.51-3.9 320.51-6.2L320.51-6.2Q320.51-7.7 319.64-8.68 318.76-9.65 317.46-10.25 316.16-10.85 313.96-11.55L313.96-11.55Q311.51-12.35 309.96-13.05 308.41-13.75 307.26-15.03 306.11-16.3 305.91-18.25L305.91-18.25 305.86-18.85Q305.86-20.5 306.79-22.08 307.71-23.65 309.64-24.65 311.56-25.65 314.46-25.65L314.46-25.65Q316.06-25.65 317.29-25.33 318.51-25 319.21-24.65 319.91-24.3 320.06-24.2L320.06-24.2 319.11-21.9Q318.96-22 318.39-22.3 317.81-22.6 316.76-22.9 315.71-23.2 314.46-23.2L314.46-23.2Q312.06-23.2 310.36-22.08 308.66-20.95 308.66-18.95L308.66-18.95Q308.66-17.05 310.21-16.05 311.76-15.05 314.96-14.05L314.96-14.05Q317.66-13.15 319.31-12.35 320.96-11.55 322.14-10.08 323.31-8.6 323.31-6.25L323.31-6.25Q323.31-3.25 321.09-1.25 318.86 0.75 314.56 0.75L314.56 0.75Q311.71 0.75 309.64-0.23 307.56-1.2 306.49-2.8 305.41-4.4 305.31-6.35L305.31-6.35 307.96-6.35Z" opacity="1" transform="matrix(1,0,0,1,0,0)" fill="#233565" class="slogan-text-1" data-fill-palette-color="secondary" id="text-1"></path></svg></g></svg></g></svg></g></svg></g><g transform="matrix(1,0,0,1,117.26908219864069,0)"><svg viewBox="0 0 162.95943560271854 194.92426593042347" height="194.92426593042347" width="162.95943560271854"><g><svg xmlns="http://www.w3.org/2000/svg" xmlns:xlink="http://www.w3.org/1999/xlink" version="1.1" x="8" y="0" viewBox="15.161749872314639 3.799 68.66049096789588 91.07" enable-background="new 0 0 100 100" xml:space="preserve" height="194.92426593042347" width="146.95943560271854" class="icon-icon-0" data-fill-palette-color="accent" id="icon-0"><g fill="#8bd8bc" data-fill-palette-color="accent"><path d="M40.717 13.47H58.235L58.267 13.471 64.064 7.675C66.195 5.543 65.472 3.799 62.458 3.799H36.529C33.513 3.799 32.791 5.543 34.923 7.675z" fill="#8bd8bc" data-fill-palette-color="accent"></path><path d="M57.938 22.173H41.046C29.251 29.667 15.213 48.673 15.162 63.701 15.109 79.257 23.469 94.862 49.492 94.869 75.515 94.862 83.874 79.257 83.822 63.701 83.771 48.673 69.733 29.667 57.938 22.173M51.464 74.771V80.185H47.153V75.086C43.842 74.981 40.531 74.034 38.639 72.774L40.058 67.834C42.107 69.043 45.051 70.146 48.257 70.146 51.568 70.146 53.828 68.517 53.828 65.994 53.828 63.629 51.988 62.105 48.099 60.685 42.58 58.688 39.006 56.166 39.006 51.278 39.006 46.757 42.159 43.289 47.468 42.343V37.192H51.777V42.08C55.089 42.185 57.348 42.974 59.031 43.814L57.611 48.649C56.35 48.071 54.039 46.862 50.465 46.862 46.786 46.862 45.472 48.755 45.472 50.541 45.472 52.697 47.364 53.904 51.83 55.692 57.717 57.899 60.346 60.738 60.346 65.414 60.346 69.883 57.244 73.825 51.464 74.771" fill="#8bd8bc" data-fill-palette-color="accent"></path><path d="M58.251 14.92H40.734A2.846 2.846 0 0 0 37.888 17.766V17.876A2.846 2.846 0 0 0 40.734 20.723H58.251A2.847 2.847 0 0 0 61.097 17.876V17.766A2.844 2.844 0 0 0 58.284 14.922z" fill="#8bd8bc" data-fill-palette-color="accent"></path></g></svg></g></svg></g><g></g></svg></g><defs></defs></svg><rect width="253.51410381597697" height="247.2" fill="none" stroke="none" visibility="hidden"></rect></g></svg></g></svg>